<mxfile host="app.diagrams.net" modified="2023-12-05T19:10:52.722Z" agent="Mozilla/5.0 (Windows NT 10.0; Win64; x64) AppleWebKit/537.36 (KHTML, like Gecko) Chrome/119.0.0.0 Safari/537.36" etag="htl6LP7iThZIbLMpJyXW" version="22.1.5" type="device">
  <diagram name="Page-1" id="2YBvvXClWsGukQMizWep">
    <mxGraphModel dx="1688" dy="880" grid="1" gridSize="10" guides="1" tooltips="1" connect="1" arrows="1" fold="1" page="1" pageScale="1" pageWidth="850" pageHeight="1100" math="0" shadow="0">
      <root>
        <mxCell id="0" />
        <mxCell id="1" parent="0" />
        <mxCell id="lU6mVO3UbZHwELB_DBvl-1" value="CKB platform" style="shape=umlLifeline;perimeter=lifelinePerimeter;whiteSpace=wrap;html=1;container=0;dropTarget=0;collapsible=0;recursiveResize=0;outlineConnect=0;portConstraint=eastwest;newEdgeStyle={&quot;edgeStyle&quot;:&quot;elbowEdgeStyle&quot;,&quot;elbow&quot;:&quot;vertical&quot;,&quot;curved&quot;:0,&quot;rounded&quot;:0};" parent="1" vertex="1">
          <mxGeometry x="80" y="40" width="100" height="570" as="geometry" />
        </mxCell>
        <mxCell id="lU6mVO3UbZHwELB_DBvl-2" value="" style="html=1;points=[];perimeter=orthogonalPerimeter;outlineConnect=0;targetShapes=umlLifeline;portConstraint=eastwest;newEdgeStyle={&quot;edgeStyle&quot;:&quot;elbowEdgeStyle&quot;,&quot;elbow&quot;:&quot;vertical&quot;,&quot;curved&quot;:0,&quot;rounded&quot;:0};" parent="lU6mVO3UbZHwELB_DBvl-1" vertex="1">
          <mxGeometry x="45" y="70" width="10" height="30" as="geometry" />
        </mxCell>
        <mxCell id="lU6mVO3UbZHwELB_DBvl-3" value="" style="html=1;points=[];perimeter=orthogonalPerimeter;outlineConnect=0;targetShapes=umlLifeline;portConstraint=eastwest;newEdgeStyle={&quot;edgeStyle&quot;:&quot;elbowEdgeStyle&quot;,&quot;elbow&quot;:&quot;vertical&quot;,&quot;curved&quot;:0,&quot;rounded&quot;:0};" parent="lU6mVO3UbZHwELB_DBvl-1" vertex="1">
          <mxGeometry x="45" y="130" width="10" height="90" as="geometry" />
        </mxCell>
        <mxCell id="lU6mVO3UbZHwELB_DBvl-33" value="" style="html=1;points=[[0,0,0,0,5],[0,1,0,0,-5],[1,0,0,0,5],[1,1,0,0,-5]];perimeter=orthogonalPerimeter;outlineConnect=0;targetShapes=umlLifeline;portConstraint=eastwest;newEdgeStyle={&quot;curved&quot;:0,&quot;rounded&quot;:0};" parent="lU6mVO3UbZHwELB_DBvl-1" vertex="1">
          <mxGeometry x="50" y="150" width="10" height="25" as="geometry" />
        </mxCell>
        <mxCell id="lU6mVO3UbZHwELB_DBvl-34" value="&lt;font style=&quot;font-size: 9px;&quot;&gt;4 : checkIfBattleEvaluable() -&amp;gt;&amp;nbsp;&lt;br&gt;&lt;span style=&quot;white-space: pre;&quot;&gt;&#x9;&lt;/span&gt;battleEnded, manualEval&lt;/font&gt;" style="html=1;align=left;spacingLeft=2;endArrow=block;rounded=0;edgeStyle=orthogonalEdgeStyle;curved=0;rounded=0;" parent="lU6mVO3UbZHwELB_DBvl-1" target="lU6mVO3UbZHwELB_DBvl-33" edge="1">
          <mxGeometry relative="1" as="geometry">
            <mxPoint x="55" y="135" as="sourcePoint" />
            <Array as="points">
              <mxPoint x="80" y="135" />
              <mxPoint x="80" y="150" />
            </Array>
          </mxGeometry>
        </mxCell>
        <mxCell id="lU6mVO3UbZHwELB_DBvl-50" value="&lt;font style=&quot;font-size: 9px;&quot;&gt;9 : closeBattle(battleId)&lt;/font&gt;" style="html=1;verticalAlign=bottom;endArrow=block;edgeStyle=elbowEdgeStyle;elbow=vertical;curved=0;rounded=0;" parent="lU6mVO3UbZHwELB_DBvl-1" edge="1">
          <mxGeometry relative="1" as="geometry">
            <mxPoint x="-165" y="410" as="sourcePoint" />
            <Array as="points">
              <mxPoint x="-50" y="410" />
            </Array>
            <mxPoint x="45" y="410" as="targetPoint" />
          </mxGeometry>
        </mxCell>
        <mxCell id="lU6mVO3UbZHwELB_DBvl-51" value="" style="html=1;points=[];perimeter=orthogonalPerimeter;outlineConnect=0;targetShapes=umlLifeline;portConstraint=eastwest;newEdgeStyle={&quot;edgeStyle&quot;:&quot;elbowEdgeStyle&quot;,&quot;elbow&quot;:&quot;vertical&quot;,&quot;curved&quot;:0,&quot;rounded&quot;:0};" parent="lU6mVO3UbZHwELB_DBvl-1" vertex="1">
          <mxGeometry x="45" y="410" width="10" height="20" as="geometry" />
        </mxCell>
        <mxCell id="lU6mVO3UbZHwELB_DBvl-54" value="&lt;font style=&quot;font-size: 9px;&quot;&gt;10 : sendMessage(successfulClosure)&lt;/font&gt;" style="html=1;verticalAlign=bottom;endArrow=openThin;dashed=1;endSize=8;edgeStyle=elbowEdgeStyle;elbow=vertical;curved=0;rounded=0;endFill=0;" parent="lU6mVO3UbZHwELB_DBvl-1" source="lU6mVO3UbZHwELB_DBvl-51" edge="1">
          <mxGeometry relative="1" as="geometry">
            <mxPoint x="-165" y="429.1700000000001" as="targetPoint" />
            <Array as="points">
              <mxPoint x="-75" y="429.17" />
            </Array>
            <mxPoint x="45" y="429.17" as="sourcePoint" />
          </mxGeometry>
        </mxCell>
        <mxCell id="lU6mVO3UbZHwELB_DBvl-56" value="[else]" style="text;html=1;strokeColor=none;fillColor=none;align=center;verticalAlign=middle;whiteSpace=wrap;rounded=0;fontSize=10;" parent="lU6mVO3UbZHwELB_DBvl-1" vertex="1">
          <mxGeometry x="-270" y="460" width="35" height="10" as="geometry" />
        </mxCell>
        <mxCell id="lU6mVO3UbZHwELB_DBvl-58" value="" style="html=1;points=[];perimeter=orthogonalPerimeter;outlineConnect=0;targetShapes=umlLifeline;portConstraint=eastwest;newEdgeStyle={&quot;edgeStyle&quot;:&quot;elbowEdgeStyle&quot;,&quot;elbow&quot;:&quot;vertical&quot;,&quot;curved&quot;:0,&quot;rounded&quot;:0};" parent="lU6mVO3UbZHwELB_DBvl-1" vertex="1">
          <mxGeometry x="45" y="450" width="10" height="30" as="geometry" />
        </mxCell>
        <mxCell id="lU6mVO3UbZHwELB_DBvl-55" value="" style="endArrow=none;dashed=1;html=1;rounded=0;exitX=0.001;exitY=0.409;exitDx=0;exitDy=0;exitPerimeter=0;strokeWidth=2;" parent="lU6mVO3UbZHwELB_DBvl-1" edge="1">
          <mxGeometry width="50" height="50" relative="1" as="geometry">
            <mxPoint x="-290" y="450.75" as="sourcePoint" />
            <mxPoint x="100" y="450" as="targetPoint" />
          </mxGeometry>
        </mxCell>
        <mxCell id="lU6mVO3UbZHwELB_DBvl-59" value="&lt;font style=&quot;font-size: 9px;&quot;&gt;11 : sendMessage(error)&lt;/font&gt;" style="html=1;verticalAlign=bottom;endArrow=openThin;dashed=1;endSize=8;edgeStyle=elbowEdgeStyle;elbow=horizontal;curved=0;rounded=0;endFill=0;" parent="lU6mVO3UbZHwELB_DBvl-1" source="lU6mVO3UbZHwELB_DBvl-58" edge="1">
          <mxGeometry relative="1" as="geometry">
            <mxPoint x="-165" y="480" as="targetPoint" />
            <Array as="points">
              <mxPoint x="-75" y="480" />
            </Array>
            <mxPoint x="45" y="469.16999999999996" as="sourcePoint" />
          </mxGeometry>
        </mxCell>
        <mxCell id="lU6mVO3UbZHwELB_DBvl-61" value="&lt;font style=&quot;font-size: 9px;&quot;&gt;13 : showPage(tournamentPage)&lt;/font&gt;" style="html=1;verticalAlign=bottom;endArrow=openThin;dashed=1;endSize=8;edgeStyle=elbowEdgeStyle;elbow=vertical;curved=0;rounded=0;endFill=0;" parent="lU6mVO3UbZHwELB_DBvl-1" source="lU6mVO3UbZHwELB_DBvl-62" edge="1">
          <mxGeometry relative="1" as="geometry">
            <mxPoint x="-165" y="540" as="targetPoint" />
            <Array as="points">
              <mxPoint x="-65" y="540" />
            </Array>
            <mxPoint x="50" y="530" as="sourcePoint" />
          </mxGeometry>
        </mxCell>
        <mxCell id="lU6mVO3UbZHwELB_DBvl-62" value="" style="html=1;points=[];perimeter=orthogonalPerimeter;outlineConnect=0;targetShapes=umlLifeline;portConstraint=eastwest;newEdgeStyle={&quot;edgeStyle&quot;:&quot;elbowEdgeStyle&quot;,&quot;elbow&quot;:&quot;vertical&quot;,&quot;curved&quot;:0,&quot;rounded&quot;:0};" parent="lU6mVO3UbZHwELB_DBvl-1" vertex="1">
          <mxGeometry x="45" y="520" width="10" height="20" as="geometry" />
        </mxCell>
        <mxCell id="lU6mVO3UbZHwELB_DBvl-64" value="" style="endArrow=none;dashed=1;html=1;rounded=0;" parent="lU6mVO3UbZHwELB_DBvl-1" edge="1">
          <mxGeometry width="50" height="50" relative="1" as="geometry">
            <mxPoint x="-170.4" y="570" as="sourcePoint" />
            <mxPoint x="-170.4" y="560" as="targetPoint" />
          </mxGeometry>
        </mxCell>
        <mxCell id="lU6mVO3UbZHwELB_DBvl-60" value="&lt;font style=&quot;font-size: 9px;&quot;&gt;12 : click(continueButton)&lt;/font&gt;" style="html=1;verticalAlign=bottom;endArrow=block;edgeStyle=elbowEdgeStyle;elbow=vertical;curved=0;rounded=0;" parent="lU6mVO3UbZHwELB_DBvl-1" target="lU6mVO3UbZHwELB_DBvl-62" edge="1">
          <mxGeometry x="-0.0016" relative="1" as="geometry">
            <mxPoint x="-165" y="520" as="sourcePoint" />
            <Array as="points">
              <mxPoint x="-45" y="520" />
            </Array>
            <mxPoint x="50" y="530" as="targetPoint" />
            <mxPoint as="offset" />
          </mxGeometry>
        </mxCell>
        <mxCell id="lU6mVO3UbZHwELB_DBvl-6" value="&lt;font style=&quot;font-size: 9px;&quot;&gt;Educator&lt;/font&gt;" style="shape=umlActor;verticalLabelPosition=bottom;verticalAlign=top;html=1;outlineConnect=0;" parent="1" vertex="1">
          <mxGeometry x="-100" y="40" width="20" height="40" as="geometry" />
        </mxCell>
        <mxCell id="lU6mVO3UbZHwELB_DBvl-7" value="" style="endArrow=none;dashed=1;html=1;rounded=0;" parent="1" source="lU6mVO3UbZHwELB_DBvl-9" edge="1">
          <mxGeometry width="50" height="50" relative="1" as="geometry">
            <mxPoint x="-90" y="350" as="sourcePoint" />
            <mxPoint x="-90" y="100" as="targetPoint" />
          </mxGeometry>
        </mxCell>
        <mxCell id="lU6mVO3UbZHwELB_DBvl-9" value="" style="html=1;points=[];perimeter=orthogonalPerimeter;outlineConnect=0;targetShapes=umlLifeline;portConstraint=eastwest;newEdgeStyle={&quot;edgeStyle&quot;:&quot;elbowEdgeStyle&quot;,&quot;elbow&quot;:&quot;vertical&quot;,&quot;curved&quot;:0,&quot;rounded&quot;:0};" parent="1" vertex="1">
          <mxGeometry x="-95" y="110" width="10" height="490" as="geometry" />
        </mxCell>
        <mxCell id="lU6mVO3UbZHwELB_DBvl-10" value="&lt;font style=&quot;font-size: 9px;&quot;&gt;1 : request(tournamentId)&lt;/font&gt;" style="html=1;verticalAlign=bottom;endArrow=block;edgeStyle=elbowEdgeStyle;elbow=horizontal;curved=0;rounded=0;" parent="1" source="lU6mVO3UbZHwELB_DBvl-9" target="lU6mVO3UbZHwELB_DBvl-2" edge="1">
          <mxGeometry relative="1" as="geometry">
            <mxPoint x="-50" y="110" as="sourcePoint" />
            <Array as="points">
              <mxPoint x="30" y="110" />
            </Array>
            <mxPoint x="115" y="110" as="targetPoint" />
          </mxGeometry>
        </mxCell>
        <mxCell id="lU6mVO3UbZHwELB_DBvl-11" value="&lt;font style=&quot;font-size: 9px;&quot;&gt;2 : showPage(tournamentPage)&lt;/font&gt;" style="html=1;verticalAlign=bottom;endArrow=openThin;dashed=1;endSize=8;edgeStyle=elbowEdgeStyle;elbow=vertical;curved=0;rounded=0;endFill=0;" parent="1" source="lU6mVO3UbZHwELB_DBvl-2" target="lU6mVO3UbZHwELB_DBvl-9" edge="1">
          <mxGeometry relative="1" as="geometry">
            <mxPoint x="-50" y="140" as="targetPoint" />
            <Array as="points">
              <mxPoint x="5" y="140" />
            </Array>
            <mxPoint x="80" y="140" as="sourcePoint" />
          </mxGeometry>
        </mxCell>
        <mxCell id="lU6mVO3UbZHwELB_DBvl-13" value="&lt;font style=&quot;font-size: 9px;&quot;&gt;3 : request(battleId)&lt;/font&gt;" style="html=1;verticalAlign=bottom;endArrow=block;edgeStyle=elbowEdgeStyle;elbow=vertical;curved=0;rounded=0;" parent="1" source="lU6mVO3UbZHwELB_DBvl-9" target="lU6mVO3UbZHwELB_DBvl-3" edge="1">
          <mxGeometry relative="1" as="geometry">
            <mxPoint x="-80" y="190" as="sourcePoint" />
            <Array as="points">
              <mxPoint x="30" y="170" />
            </Array>
            <mxPoint x="90" y="200" as="targetPoint" />
          </mxGeometry>
        </mxCell>
        <mxCell id="lU6mVO3UbZHwELB_DBvl-25" value="&lt;p style=&quot;line-height: 120%; font-size: 9px;&quot;&gt;&lt;font style=&quot;font-size: 9px;&quot;&gt;&lt;b&gt;alt&lt;/b&gt;: battleEnded == true &amp;amp;&amp;amp; manualEval == true&lt;/font&gt;&lt;/p&gt;" style="shape=umlFrame;whiteSpace=wrap;html=1;pointerEvents=0;width=110;height=30;verticalAlign=middle;horizontal=1;labelPosition=center;verticalLabelPosition=middle;align=center;" parent="1" vertex="1">
          <mxGeometry x="-210" y="230" width="390" height="310" as="geometry" />
        </mxCell>
        <mxCell id="lU6mVO3UbZHwELB_DBvl-37" value="[then]" style="text;html=1;strokeColor=none;fillColor=none;align=center;verticalAlign=middle;whiteSpace=wrap;rounded=0;fontSize=10;" parent="1" vertex="1">
          <mxGeometry x="-190" y="270" width="35" height="10" as="geometry" />
        </mxCell>
        <mxCell id="lU6mVO3UbZHwELB_DBvl-38" value="&lt;p style=&quot;line-height: 120%;&quot;&gt;&lt;font style=&quot;font-size: 10px;&quot;&gt;&lt;b&gt;loop foreach&lt;/b&gt;: group &lt;b&gt;in &lt;/b&gt;groups&lt;/font&gt;&lt;/p&gt;" style="shape=umlFrame;whiteSpace=wrap;html=1;pointerEvents=0;width=90;height=40;verticalAlign=middle;horizontal=1;labelPosition=center;verticalLabelPosition=middle;align=center;" parent="1" vertex="1">
          <mxGeometry x="-200" y="290" width="350" height="140" as="geometry" />
        </mxCell>
        <mxCell id="lU6mVO3UbZHwELB_DBvl-40" value="" style="html=1;points=[[0,0,0,0,5],[0,1,0,0,-5],[1,0,0,0,5],[1,1,0,0,-5]];perimeter=orthogonalPerimeter;outlineConnect=0;targetShapes=umlLifeline;portConstraint=eastwest;newEdgeStyle={&quot;curved&quot;:0,&quot;rounded&quot;:0};" parent="1" vertex="1">
          <mxGeometry x="-90" y="315" width="10" height="25" as="geometry" />
        </mxCell>
        <mxCell id="lU6mVO3UbZHwELB_DBvl-41" value="&lt;font style=&quot;font-size: 9px;&quot;&gt;6 : manuallyEvaluate(work, preferences)&lt;/font&gt;" style="html=1;align=left;spacingLeft=2;endArrow=block;rounded=0;edgeStyle=orthogonalEdgeStyle;curved=0;rounded=0;" parent="1" target="lU6mVO3UbZHwELB_DBvl-40" edge="1">
          <mxGeometry relative="1" as="geometry">
            <mxPoint x="-85" y="300" as="sourcePoint" />
            <Array as="points">
              <mxPoint x="-60" y="300" />
              <mxPoint x="-60" y="315" />
            </Array>
          </mxGeometry>
        </mxCell>
        <mxCell id="lU6mVO3UbZHwELB_DBvl-42" value="" style="html=1;points=[[0,0,0,0,5],[0,1,0,0,-5],[1,0,0,0,5],[1,1,0,0,-5]];perimeter=orthogonalPerimeter;outlineConnect=0;targetShapes=umlLifeline;portConstraint=eastwest;newEdgeStyle={&quot;curved&quot;:0,&quot;rounded&quot;:0};" parent="1" vertex="1">
          <mxGeometry x="-90" y="365" width="10" height="25" as="geometry" />
        </mxCell>
        <mxCell id="lU6mVO3UbZHwELB_DBvl-43" value="&lt;font style=&quot;font-size: 9px;&quot;&gt;7 : computeNewScore()&lt;/font&gt;" style="html=1;align=left;spacingLeft=2;endArrow=block;rounded=0;edgeStyle=orthogonalEdgeStyle;curved=0;rounded=0;" parent="1" target="lU6mVO3UbZHwELB_DBvl-42" edge="1">
          <mxGeometry relative="1" as="geometry">
            <mxPoint x="-85" y="350" as="sourcePoint" />
            <Array as="points">
              <mxPoint x="-60" y="350" />
              <mxPoint x="-60" y="365" />
            </Array>
          </mxGeometry>
        </mxCell>
        <mxCell id="lU6mVO3UbZHwELB_DBvl-47" value="&lt;font style=&quot;font-size: 9px;&quot;&gt;8 : changeScore(newScore)&lt;/font&gt;" style="html=1;verticalAlign=bottom;endArrow=block;edgeStyle=elbowEdgeStyle;elbow=vertical;curved=0;rounded=0;" parent="1" target="lU6mVO3UbZHwELB_DBvl-48" edge="1">
          <mxGeometry relative="1" as="geometry">
            <mxPoint x="-85" y="400" as="sourcePoint" />
            <Array as="points">
              <mxPoint x="30" y="400" />
            </Array>
            <mxPoint x="125" y="400" as="targetPoint" />
          </mxGeometry>
        </mxCell>
        <mxCell id="lU6mVO3UbZHwELB_DBvl-48" value="" style="html=1;points=[];perimeter=orthogonalPerimeter;outlineConnect=0;targetShapes=umlLifeline;portConstraint=eastwest;newEdgeStyle={&quot;edgeStyle&quot;:&quot;elbowEdgeStyle&quot;,&quot;elbow&quot;:&quot;vertical&quot;,&quot;curved&quot;:0,&quot;rounded&quot;:0};" parent="1" vertex="1">
          <mxGeometry x="125" y="400" width="10" height="20" as="geometry" />
        </mxCell>
        <mxCell id="lU6mVO3UbZHwELB_DBvl-57" value="&lt;font style=&quot;font-size: 9px;&quot;&gt;5 : sendMessage(confirmation)&lt;/font&gt;" style="html=1;verticalAlign=bottom;endArrow=openThin;dashed=1;endSize=8;edgeStyle=elbowEdgeStyle;elbow=horizontal;curved=0;rounded=0;endFill=0;" parent="1" edge="1">
          <mxGeometry relative="1" as="geometry">
            <mxPoint x="-85" y="260" as="targetPoint" />
            <Array as="points">
              <mxPoint x="5" y="260" />
            </Array>
            <mxPoint x="125" y="260" as="sourcePoint" />
          </mxGeometry>
        </mxCell>
      </root>
    </mxGraphModel>
  </diagram>
</mxfile>
